<svg width="18" height="20" viewBox="0 0 18 20" fill="none" xmlns="http://www.w3.org/2000/svg">
<path fill-rule="evenodd" clip-rule="evenodd" d="M10.1073 1.5947C10.8129 0.733128 12.0236 0.0714951 13.0595 0C13.2331 1.17785 12.7535 2.33147 12.1196 3.147C11.4419 4.02311 10.2725 4.7005 9.1407 4.66536C8.93426 3.53719 9.46373 2.3763 10.1073 1.5947ZM13.2976 4.66667C14.6763 4.66667 16.1361 5.41237 17.1748 6.69733C13.7694 8.55033 14.3212 13.3774 17.762 14.6698C17.289 15.7108 17.0619 16.175 16.4519 17.0971C15.6009 18.3833 14.4023 19.9861 12.9146 19.9974C12.3031 20.0037 11.9019 19.8211 11.4693 19.6243C10.9679 19.3961 10.4243 19.1487 9.46231 19.1541C8.50557 19.1587 7.95332 19.4031 7.44508 19.6279C7.00132 19.8242 6.59111 20.0057 5.9745 19.9999C4.48805 19.9874 3.35166 18.541 2.50063 17.2548C0.122576 13.6601 -0.128547 9.43991 1.33887 7.1953C2.38268 5.6013 4.02893 4.66917 5.57498 4.66917C6.39898 4.66917 7.06308 4.90407 7.69594 5.12791C8.27193 5.33165 8.82205 5.52623 9.44329 5.52623C10.0181 5.52623 10.4908 5.34859 11.0063 5.15482C11.6248 4.92235 12.305 4.66667 13.2976 4.66667Z" fill="#495567"/>
</svg>
